<svg xmlns="http://www.w3.org/2000/svg" width="184.959" height="171.406" viewBox="0 0 184.959 171.406">
  <g id="design-element" transform="translate(-530.643 -309.12)">
    <g id="Group_3" data-name="Group 3" transform="translate(531.643 469.849)">
      <path id="Path_6" data-name="Path 6" d="M541.32,369.844a4.838,4.838,0,1,1-4.84-4.84A4.839,4.839,0,0,1,541.32,369.844Z" transform="translate(-531.643 -365.004)" fill="none" stroke="#fff" stroke-miterlimit="10" stroke-width="2"/>
      <path id="Path_7" data-name="Path 7" d="M556.2,369.844a4.838,4.838,0,1,1-4.837-4.84A4.837,4.837,0,0,1,556.2,369.844Z" transform="translate(-503.208 -365.004)" fill="none" stroke="#3c4a4c" stroke-miterlimit="10" stroke-width="2"/>
      <circle id="Ellipse_6" data-name="Ellipse 6" cx="4.838" cy="4.838" r="4.838" transform="translate(86.642 0.001)" fill="none" stroke="#d34f4f" stroke-miterlimit="10" stroke-width="2"/>
      <circle id="Ellipse_7" data-name="Ellipse 7" cx="4.838" cy="4.838" r="4.838" transform="translate(129.962 0.001)" fill="none" stroke="#3c4a4c" stroke-miterlimit="10" stroke-width="2"/>
      <path id="Path_8" data-name="Path 8" d="M600.861,369.844a4.838,4.838,0,1,1-4.837-4.84A4.836,4.836,0,0,1,600.861,369.844Z" transform="translate(-417.901 -365.004)" fill="none" stroke="#3c4a4c" stroke-miterlimit="10" stroke-width="2"/>
    </g>
    <g id="Group_4" data-name="Group 4" transform="translate(531.643 429.917)">
      <path id="Path_9" data-name="Path 9" d="M541.32,356.12a4.838,4.838,0,1,1-4.84-4.837A4.84,4.84,0,0,1,541.32,356.12Z" transform="translate(-531.643 -351.283)" fill="none" stroke="#3c4a4c" stroke-miterlimit="10" stroke-width="2"/>
      <path id="Path_10" data-name="Path 10" d="M556.2,356.12a4.838,4.838,0,1,1-4.837-4.837A4.837,4.837,0,0,1,556.2,356.12Z" transform="translate(-503.208 -351.283)" fill="none" stroke="#d34f4f" stroke-miterlimit="10" stroke-width="2"/>
      <path id="Path_11" data-name="Path 11" d="M571.088,356.12a4.837,4.837,0,1,1-4.837-4.837A4.837,4.837,0,0,1,571.088,356.12Z" transform="translate(-474.771 -351.283)" fill="none" stroke="#3c4a4c" stroke-miterlimit="10" stroke-width="2"/>
      <path id="Path_12" data-name="Path 12" d="M585.976,356.12a4.838,4.838,0,1,1-4.84-4.837A4.84,4.84,0,0,1,585.976,356.12Z" transform="translate(-446.336 -351.283)" fill="none" stroke="#d34f4f" stroke-miterlimit="10" stroke-width="2"/>
      <path id="Path_13" data-name="Path 13" d="M600.861,356.12a4.838,4.838,0,1,1-4.837-4.837A4.837,4.837,0,0,1,600.861,356.12Z" transform="translate(-417.901 -351.283)" fill="none" stroke="#fff" stroke-miterlimit="10" stroke-width="2"/>
    </g>
    <g id="Group_5" data-name="Group 5" transform="translate(531.643 389.985)">
      <path id="Path_14" data-name="Path 14" d="M541.32,342.4a4.838,4.838,0,1,1-4.84-4.837A4.841,4.841,0,0,1,541.32,342.4Z" transform="translate(-531.643 -337.562)" fill="none" stroke="#fff" stroke-miterlimit="10" stroke-width="2"/>
      <path id="Path_15" data-name="Path 15" d="M556.2,342.4a4.838,4.838,0,1,1-4.837-4.837A4.839,4.839,0,0,1,556.2,342.4Z" transform="translate(-503.208 -337.562)" fill="none" stroke="#3c4a4c" stroke-miterlimit="10" stroke-width="2"/>
      <circle id="Ellipse_8" data-name="Ellipse 8" cx="4.838" cy="4.838" r="4.838" transform="translate(86.642)" fill="none" stroke="#3c4a4c" stroke-miterlimit="10" stroke-width="2"/>
      <circle id="Ellipse_9" data-name="Ellipse 9" cx="4.838" cy="4.838" r="4.838" transform="translate(129.962)" fill="none" stroke="#3c4a4c" stroke-miterlimit="10" stroke-width="2"/>
      <path id="Path_16" data-name="Path 16" d="M600.861,342.4a4.838,4.838,0,1,1-4.837-4.837A4.839,4.839,0,0,1,600.861,342.4Z" transform="translate(-417.901 -337.562)" fill="none" stroke="#d34f4f" stroke-miterlimit="10" stroke-width="2"/>
    </g>
    <g id="Group_6" data-name="Group 6" transform="translate(531.643 350.052)">
      <path id="Path_17" data-name="Path 17" d="M541.32,328.678a4.838,4.838,0,1,1-4.84-4.837A4.841,4.841,0,0,1,541.32,328.678Z" transform="translate(-531.643 -323.841)" fill="none" stroke="#3c4a4c" stroke-miterlimit="10" stroke-width="2"/>
      <path id="Path_18" data-name="Path 18" d="M556.2,328.678a4.838,4.838,0,1,1-4.837-4.837A4.839,4.839,0,0,1,556.2,328.678Z" transform="translate(-503.208 -323.841)" fill="none" stroke="#3c4a4c" stroke-miterlimit="10" stroke-width="2"/>
      <path id="Path_19" data-name="Path 19" d="M571.088,328.678a4.837,4.837,0,1,1-4.837-4.837A4.839,4.839,0,0,1,571.088,328.678Z" transform="translate(-474.771 -323.841)" fill="none" stroke="#d34f4f" stroke-miterlimit="10" stroke-width="2"/>
      <path id="Path_20" data-name="Path 20" d="M585.976,328.678a4.838,4.838,0,1,1-4.84-4.837A4.841,4.841,0,0,1,585.976,328.678Z" transform="translate(-446.336 -323.841)" fill="none" stroke="#3c4a4c" stroke-miterlimit="10" stroke-width="2"/>
      <path id="Path_21" data-name="Path 21" d="M600.861,328.678a4.838,4.838,0,1,1-4.837-4.837A4.839,4.839,0,0,1,600.861,328.678Z" transform="translate(-417.901 -323.841)" fill="none" stroke="#fff" stroke-miterlimit="10" stroke-width="2"/>
    </g>
    <g id="Group_7" data-name="Group 7" transform="translate(531.643 310.12)">
      <path id="Path_22" data-name="Path 22" d="M541.32,314.957a4.838,4.838,0,1,1-4.84-4.837A4.839,4.839,0,0,1,541.32,314.957Z" transform="translate(-531.643 -310.12)" fill="none" stroke="#d34f4f" stroke-miterlimit="10" stroke-width="2"/>
      <path id="Path_23" data-name="Path 23" d="M556.2,314.957a4.838,4.838,0,1,1-4.837-4.837A4.837,4.837,0,0,1,556.2,314.957Z" transform="translate(-503.208 -310.12)" fill="none" stroke="#fff" stroke-miterlimit="10" stroke-width="2"/>
      <path id="Path_24" data-name="Path 24" d="M571.088,314.957a4.837,4.837,0,1,1-4.837-4.837A4.836,4.836,0,0,1,571.088,314.957Z" transform="translate(-474.771 -310.12)" fill="none" stroke="#3c4a4c" stroke-miterlimit="10" stroke-width="2"/>
      <path id="Path_25" data-name="Path 25" d="M585.976,314.957a4.838,4.838,0,1,1-4.84-4.837A4.839,4.839,0,0,1,585.976,314.957Z" transform="translate(-446.336 -310.12)" fill="none" stroke="#3c4a4c" stroke-miterlimit="10" stroke-width="2"/>
      <path id="Path_26" data-name="Path 26" d="M600.861,314.957a4.838,4.838,0,1,1-4.837-4.837A4.836,4.836,0,0,1,600.861,314.957Z" transform="translate(-417.901 -310.12)" fill="none" stroke="#d34f4f" stroke-miterlimit="10" stroke-width="2"/>
    </g>
  </g>
</svg>
