<svg width="275" height="280" viewBox="0 0 275 280" fill="none" xmlns="http://www.w3.org/2000/svg">
<path d="M137.8 11.2L28.6 72.8V198.8L137.8 263.2L247 201.6V75.6L137.8 11.2Z" fill="#0A192F" stroke="#0A192F" stroke-width="5" stroke-linecap="round" stroke-linejoin="round"/>
<path d="M90.2 178.001C90.2 181.762 93.2387 184.8 97 184.8C100.761 184.8 103.8 181.762 103.8 178.001H90.2ZM97 96.4146L102.652 92.6327C100.995 90.1469 97.8925 89.0208 95.0237 89.892C92.155 90.7631 90.2 93.4189 90.2 96.4146H97ZM137.8 157.604L132.147 161.386C133.401 163.277 135.526 164.403 137.8 164.403C140.074 164.403 142.199 163.277 143.452 161.386L137.8 157.604ZM178.6 96.4146H185.4C185.4 93.4189 183.445 90.7843 180.576 89.9132C177.707 89.0421 174.605 90.1469 172.947 92.654L178.6 96.4146ZM171.8 178.001C171.8 181.762 174.839 184.8 178.6 184.8C182.361 184.8 185.4 181.762 185.4 178.001H171.8ZM103.8 178.001V96.4146H90.2V178.001H103.8ZM91.3475 100.196L132.147 161.386L143.474 153.844L102.674 92.654L91.3475 100.196ZM143.474 161.386L184.274 100.196L172.947 92.6327L132.147 153.823L143.474 161.365V161.386ZM171.8 96.4146V178.001H185.4V96.4146H171.8Z" fill="#64FFDA"/>
</svg>
